<svg xmlns="http://www.w3.org/2000/svg" xmlns:xlink="http://www.w3.org/1999/xlink" xml:space="preserve" id="svg1" width="456.176" height="382.539" version="1.1" viewBox="0 0 120.697 101.213"><defs id="defs1"><linearGradient id="SVGID_1_" x1="71.416" x2="72.17" y1="-53.59" y2="90.414" gradientTransform="matrix(1.0090298,-0.22369654,0.22369654,1.0090298,26.974646,61.252742)" gradientUnits="userSpaceOnUse"><stop id="stop1" offset=".398" style="stop-color:#FACA10"/><stop id="stop2" offset=".65" style="stop-color:#F48C20"/><stop id="stop3" offset=".862" style="stop-color:#F05B2D"/></linearGradient><linearGradient xlink:href="#SVGID_1_" id="linearGradient9" x1="104.356" x2="108.337" y1="181.402" y2="75.884" gradientTransform="translate(3.195e-5)" gradientUnits="userSpaceOnUse"/></defs><g id="layer1" transform="translate(-44.626733,-43.24904)"><path id="path1-5" d="m 128.88257,76.528146 c -0.8813,0.01282 -1.59252,0.341424 -0.76791,1.298112 2.06309,4.756597 4.43385,9.495111 5.25394,14.662671 0.43408,1.923607 -1.25515,2.987288 -2.46186,1.520837 -1.14691,-0.95258 -1.82465,-2.466273 -2.62672,-3.567224 l -6.60373,1.463993 c 0.13285,2.978817 1.20759,5.894368 3.15123,8.169525 1.07678,1.08401 0.86172,2.64834 1.26866,3.99614 0.97285,3.25222 3.34889,6.22607 6.54688,7.48792 3.21554,0.81743 6.96262,0.4716 9.63559,-1.63091 2.05651,-1.75565 2.73636,-4.55639 3.28559,-7.08846 0.8141,-4.702789 0.28726,-9.623825 -1.32912,-14.101463 -2.20531,-5.421953 -6.79166,-9.963108 -12.39149,-11.782227 -0.83642,-0.245746 -1.70294,-0.412246 -2.5771,-0.415995 -0.12888,-0.01014 -0.25806,-0.01475 -0.38396,-0.01292 z M 90.305082,98.861149 63.575964,104.78689 c -0.0017,4.2e-4 -0.0035,6.3e-4 -0.0052,0.001 0.03517,3.99545 0.714506,8.36228 3.599781,11.34659 1.153863,1.54609 3.120346,1.54159 4.858101,1.35961 5.798142,-0.52905 11.414747,-4.37988 13.245186,-10.03091 0.472744,-0.9243 1.618716,-1.41458 2.217436,-2.31769 1.55544,-1.79934 2.436356,-3.98625 2.813782,-6.284371 z m 22.032248,5.309241 c -1.68973,0.051 -2.74735,1.9006 -3.0484,2.78794 -0.32112,0.94649 -1.69163,6.66916 1.03405,7.19233 2.72568,0.52318 3.91914,-6.27559 3.91914,-6.27559 0,0 0.33359,-3.4757 -1.55804,-3.69021 -0.11823,-0.0134 -0.2341,-0.0179 -0.34675,-0.0145 z m -0.63872,0.66042 a 0.9921875,1.0914062 0 0 1 0.99218,1.09141 0.9921875,1.0914062 0 0 1 -0.99218,1.0914 0.9921875,1.0914062 0 0 1 -0.99219,-1.0914 0.9921875,1.0914062 0 0 1 0.99219,-1.09141 z m -14.192417,0.56844 c -0.205168,-0.005 -0.423698,0.0198 -0.656291,0.0822 -1.860741,0.49865 -1.531689,3.20187 -1.531689,3.20187 0,0 1.091916,6.80945 3.944978,6.26628 2.853059,-0.54317 0.949299,-6.65564 0.684196,-7.36854 -0.231968,-0.62378 -1.005014,-2.14517 -2.441194,-2.18178 z m -0.500228,0.60565 a 1.0169922,1.1162109 0 0 1 1.016992,1.11621 1.0169922,1.1162109 0 0 1 -1.016992,1.11621 1.0169922,1.1162109 0 0 1 -1.016992,-1.11621 1.0169922,1.1162109 0 0 1 1.016992,-1.11621 z m 8.539015,2.87528 c -1.56767,0.004 -3.0237,0.14123 -4.42454,0.41134 0.58103,2.62525 0.95285,6.44868 -1.536338,6.92258 -2.173044,0.4137 -3.538718,-2.54288 -4.281909,-4.96301 -3.416408,1.62307 -6.993727,4.07282 -11.630815,7.32772 0.888437,0.53435 1.743014,1.17745 2.525944,1.87224 0.707863,0.62817 1.34976,1.30426 1.881022,2.01124 v 5.2e-4 c 0.247355,0.3292 0.470714,0.66527 0.665593,1.00614 0.153368,0.26826 0.291539,0.54219 0.407727,0.82114 0.05807,0.13936 0.110282,0.27969 0.156579,0.42116 0.08451,0.25828 0.144984,0.51997 0.182418,0.78342 0.0036,0.0254 0.01032,0.0505 0.01344,0.076 v 5.2e-4 c 0.0177,0.14449 0.02749,0.28966 0.02842,0.43511 v 5.2e-4 c 0.0019,0.29109 -0.03168,0.58338 -0.10697,0.87591 -0.04462,0.17336 -0.103889,0.33628 -0.176217,0.48938 -0.03613,0.0765 -0.0754,0.15053 -0.117822,0.22221 v 5.2e-4 c -0.04236,0.0715 -0.08821,0.14032 -0.136426,0.20722 v 5.2e-4 c -0.04823,0.0669 -0.09929,0.13137 -0.152962,0.19378 v 5.2e-4 l -5.17e-4,5.2e-4 c -0.05355,0.0622 -0.109911,0.1219 -0.168465,0.17983 -0.235437,0.23304 -0.509216,0.43214 -0.808736,0.60203 v 5.2e-4 h -5.17e-4 c -0.149588,0.0848 -0.305558,0.16202 -0.466121,0.23306 -0.321583,0.14219 -0.661695,0.25805 -1.007174,0.35243 -0.117655,0.0321 -0.237364,0.062 -0.358634,0.0899 1.572845,1.61034 3.600705,2.93087 5.916434,3.94343 1.520944,-0.93923 5.437327,-3.47932 6.469373,-5.33405 0.562268,-1.01047 0.556804,-3.17461 1.244368,-5.22448 0.343775,-1.02493 0.905655,-2.04245 1.886705,-2.81637 0.29287,-0.23104 0.62003,-0.43865 0.98443,-0.61908 -2.20539,-0.7351 -2.31613,-2.32751 -2.31613,-2.32751 0,0 3.16456,1.27624 5.44514,1.10123 2.28059,-0.17501 5.45393,-2.01228 5.45393,-2.01228 0,0 -0.16788,1.71826 -2.11615,2.78122 0.38164,0.13199 0.72717,0.29748 1.03922,0.49403 1.02974,0.64856 1.64721,1.60221 2.06034,2.57452 0.41313,0.9723 0.6443,1.98174 0.90433,2.85512 0.26002,0.87338 0.55451,1.5906 0.95912,2.01952 1.5982,1.69418 5.15487,3.80751 6.55825,4.60953 2.04468,-1.31977 3.82608,-2.95147 5.21571,-4.90822 -0.0789,-0.0216 -0.15732,-0.0455 -0.23513,-0.0718 -0.42386,-0.14357 -0.83389,-0.3762 -1.17616,-0.69505 -0.0684,-0.0637 -0.1344,-0.13046 -0.19688,-0.20102 v -5.2e-4 c -0.0625,-0.0706 -0.12204,-0.14427 -0.17777,-0.22169 v -5.2e-4 c -0.0557,-0.0774 -0.10797,-0.15812 -0.15606,-0.24236 v -5.2e-4 c -0.0931,-0.16315 -0.16929,-0.32912 -0.22996,-0.49764 -0.0303,-0.084 -0.0568,-0.16815 -0.0796,-0.25322 v -5.1e-4 c -0.0228,-0.0851 -0.0417,-0.1709 -0.0574,-0.25683 v -5.2e-4 c -0.0614,-0.33758 -0.0686,-0.68109 -0.0346,-1.02475 6.7e-4,-0.007 3.7e-4,-0.0134 0.001,-0.0202 v -5.2e-4 c 0.003,-0.0285 0.0105,-0.0568 0.014,-0.0853 0.0305,-0.24703 0.084,-0.49295 0.15244,-0.73742 0.0207,-0.074 0.0373,-0.14866 0.061,-0.22221 0.0648,-0.20109 0.15809,-0.39333 0.24184,-0.58911 0.0598,-0.13978 0.10577,-0.28463 0.17312,-0.42065 v -5.2e-4 h 5.2e-4 c 0.16154,-0.32623 0.3448,-0.64984 0.5457,-0.96945 v -5.1e-4 h 5.2e-4 c 0.20098,-0.31969 0.41933,-0.6354 0.65009,-0.9462 v -5.2e-4 c 0.38469,-0.5181 0.8156,-1.0115 1.24747,-1.49655 0.0863,-0.0969 0.16195,-0.20384 0.24908,-0.2992 l 5.1e-4,-5.2e-4 c 0.007,-0.008 0.0142,-0.0141 0.0212,-0.0217 0.41424,-0.45243 0.83654,-0.88756 1.24799,-1.29191 -4.40065,-2.18737 -9.04642,-4.38214 -13.69581,-5.75004 -0.74974,2.4553 -2.14346,5.61095 -4.28346,5.2002 -2.3311,-0.44744 -2.29542,-3.89963 -1.90169,-6.46111 -0.86215,-0.0875 -1.72067,-0.13323 -2.574,-0.13125 z m 37.9677,1.30534 c -1.80309,1.77429 -4.37785,2.78182 -6.94686,2.81947 -1.69055,0.21682 -3.30695,-0.0582 -4.77387,-0.69092 -0.49206,2.63827 0.23347,6.67283 4.45658,8.0636 3.95287,1.30176 7.03733,-5.80931 7.26415,-10.19215 z m -12.839,4.81315 c -2.35897,2.04082 -7.49997,6.93602 -5.96036,9.63403 1.97906,3.46812 13.02039,-2.58434 13.02039,-2.58434 0.22326,-0.166 0.37915,-0.37105 0.47594,-0.60668 -0.73009,0.19369 -1.50812,0.19918 -2.29185,-0.0589 -3.0148,-0.99284 -4.58139,-3.31241 -5.09375,-5.56038 -0.063,-0.27643 -0.11267,-0.55166 -0.15037,-0.82372 z m -51.662999,1.38957 c -2.900712,1.64711 -6.286826,2.45741 -9.598381,2.15233 0.784138,3.00448 2.681818,5.84258 5.075659,5.89059 4.805519,0.0964 5.090521,-5.66308 4.522722,-8.04292 z m 1.291394,1.91255 c 0.0061,0.94683 -0.115217,1.97944 -0.415479,3.00188 -0.314338,1.07038 -0.851389,2.12733 -1.751831,2.92799 -0.881934,0.7842 -2.112876,1.26966 -3.575492,1.26091 0.0049,0.013 0.01,0.0254 0.0155,0.0372 1.644564,3.54239 12.973686,4.40306 13.826546,1.08934 0.72255,-2.80741 -4.325991,-7.4023 -8.099247,-8.31732 z m 26.486755,1.68413 c -0.15814,0.6622 -0.32519,1.73173 -0.22324,3.06597 0.16592,2.17161 2.61035,2.77278 2.87889,2.83238 -0.2387,-0.0464 -2.20331,-0.32139 -3.07578,2.97346 -1.58601,-3.21578 -3.38481,-2.43344 -3.38481,-2.43344 0,0 2.28016,-1.01704 2.31976,-3.25665 0.0234,-1.32284 -0.43673,-2.34699 -0.81752,-2.96416 -0.90896,0.20279 -1.56901,0.52871 -2.06809,0.92243 -0.72122,0.56896 -1.13981,1.30349 -1.42782,2.16214 -0.57601,1.71729 -0.44939,3.84839 -1.345657,5.4591 -0.949973,1.70723 -3.780102,4.38912 -5.571752,5.46891 7.677879,2.57586 17.664399,2.13503 24.977289,-1.84278 -1.58296,-0.90966 -4.59487,-2.91605 -6.10661,-4.51859 -0.68018,-0.72103 -1.00564,-1.65022 -1.28312,-2.58227 -0.27749,-0.93204 -0.50244,-1.88864 -0.85008,-2.70681 -0.34764,-0.81817 -0.79447,-1.47928 -1.51929,-1.9358 -0.57831,-0.36425 -1.36548,-0.61679 -2.50217,-0.64389 z m 24.32203,6.05958 c -1.17232,0.36435 -2.35557,0.63656 -3.46439,0.70384 -0.25529,0.0155 -0.50758,0.0206 -0.75603,0.0114 -1.38426,2.08085 -3.16858,3.8314 -5.21673,5.24413 -0.89874,0.61991 -1.84695,1.17787 -2.83445,1.67535 1.30166,0.76379 2.60352,1.52754 3.90518,2.29133 l -0.78858,6.82129 c 2.47992,-1.42053 4.51282,-4.07994 4.30465,-7.05538 0.11904,-0.70703 -0.59011,-1.99218 -0.4098,-2.27428 0.86735,0.29469 1.73456,0.58949 2.60191,0.88418 0.5259,2.78433 0.77118,7.25227 1.29708,10.0366 1.64331,-2.81624 2.94444,-7.95999 1.99264,-11.18123 -0.14502,-0.79606 -1.02326,-1.7718 -1.19631,-2.21072 0.60158,0.0666 1.20296,0.1329 1.80455,0.19947 1.77887,3.34123 2.85598,7.47775 4.63485,10.81898 0.40376,-3.24608 1.31752,-7.39484 0.56069,-10.6071 -0.34807,-1.53283 -1.22301,-2.97783 -2.63343,-3.74551 -1.19759,-0.70201 -2.47938,-1.21509 -3.80183,-1.61231 z m -50.611898,3.52279 c -0.96256,0.5401 -1.85029,1.2045 -2.619478,2.01486 -1.391256,1.54322 -1.543273,3.74444 -1.611788,5.72316 -0.02448,2.40302 0.263052,4.80259 0.729154,7.15719 1.342898,-3.48041 2.685797,-6.96081 4.028695,-10.44122 0.60582,-0.1049 1.21164,-0.20981 1.81746,-0.31471 -0.950184,1.29867 -1.091542,3.02389 -0.908988,4.57905 0.32088,2.24387 1.423921,4.32526 2.890779,6.03115 l 0.557589,-7.94111 c 1.017337,-0.39739 2.034673,-0.79479 3.05201,-1.19218 -1.204575,2.22209 -0.275071,5.0125 1.396814,6.72724 0.891161,0.94238 1.961572,1.71566 3.131592,2.27428 l -1.72806,-6.54431 3.626135,-2.06395 c -2.544124,-0.74073 -4.894048,-1.79476 -6.903971,-3.15692 -1.184363,-0.80265 -2.249037,-1.72495 -3.156397,-2.7559 -0.981306,0.11252 -2.034069,0.11761 -3.097485,0.0351 -0.401552,-0.0311 -0.804244,-0.075 -1.204061,-0.13177 z" style="display:inline;fill:url(#linearGradient9);fill-opacity:1;stroke-width:0.264583"/><path id="path5-3-1-3-6" d="m 97.031803,43.24904 -34.407719,7.628475 1.991093,8.98033 34.30695,-7.605737 z m 34.356047,45.420483 c -1.17129,-3.852024 -3.02954,-7.53602 -4.60489,-11.227222 -0.91414,-2.244845 1.56396,-1.913394 2.83032,-1.981274 6.08876,0.600114 11.33984,5.210451 14.3707,10.313582 0.0126,0.02379 0.033,0.06138 0.0491,0.09147 l 15.36392,-3.405994 5.92624,-36.777602 -56.0374,17.504875 -1.85674,-8.3752 -49.240404,10.916647 2.773474,12.511897 -16.335437,5.103565 12.252999,21.843623" style="baseline-shift:baseline;display:inline;overflow:visible;vector-effect:none;fill:#4a5fad;fill-opacity:1;enable-background:accumulate;stop-color:#000000"/></g></svg>